<svg width="19" height="19" viewBox="0 0 19 19" fill="none" xmlns="http://www.w3.org/2000/svg">
<path d="M8.34718 11.16H1.12495V16.56C1.12495 17.0374 1.31517 17.4952 1.65378 17.8328C1.99239 18.1704 2.45164 18.36 2.9305 18.36H15.5694C16.0483 18.36 16.5075 18.1704 16.8461 17.8328C17.1847 17.4952 17.375 17.0374 17.375 16.56V11.16H10.1527V12.96H8.34718V11.16ZM8.34718 10.26H0.222168V4.86C0.222168 3.87 1.03467 3.06 2.02773 3.06H5.63884V2.16C5.63884 1.68261 5.82907 1.22477 6.16768 0.887208C6.50628 0.549643 6.96553 0.360001 7.4444 0.360001L11.0555 0.360001C11.5344 0.360001 11.9936 0.549643 12.3322 0.887208C12.6708 1.22477 12.8611 1.68261 12.8611 2.16V3.06H16.4722C16.951 3.06 17.4103 3.24964 17.7489 3.58721C18.0875 3.92477 18.2777 4.38261 18.2777 4.86V10.26H10.1527V8.46H8.34718V10.26ZM11.0555 3.06V2.16H7.4444V3.06H11.0555Z" fill="#5B616F"/>
</svg>
